<?xml version="1.0" encoding="UTF-8"?>
<svg id="Layer_1" data-name="Layer 1" xmlns="http://www.w3.org/2000/svg" viewBox="0 0 1482.31 686.95">
  <defs>
    <style>
      .cls-1 {
        fill: #979796;
      }

      .cls-2 {
        fill: #cac9c9;
      }

      .cls-3 {
        fill: #c91429;
      }
    </style>
  </defs>
  <g>
    <path class="cls-3" d="M1190.19,366.26c-4.96,11.31-9.95,22.6-14.85,33.93-6.2,14.28-12.54,28.5-18.39,42.91-1.68,4.15-3.69,5.99-8.13,5.32-2.16-.34-4.42-.29-6.6,0-3.9,.52-5.61-1.13-7.16-4.73-11.2-25.9-22.7-51.68-35.22-77.53v5.36c0,23.77-.15,47.54,.13,71.31,.06,4.75-1.3,6.05-5.84,5.63-5.42-.5-12.59,1.65-15.92-1.09-3.52-2.89-1.03-10.28-1.05-15.71-.1-39.39,0-78.78-.15-118.17,0-4.71,.73-6.24,6.14-6.81,11.04-1.19,16.29,2.79,20.52,13.17,13.15,32.27,27.62,64,41.61,96.02,2.85-.65,2.68-3.27,3.46-5.05,14.3-32.75,28.61-65.48,42.62-98.36,1.84-4.33,4.06-5.7,8.67-5.61,14.62,.29,14.62,.1,14.62,14.7,0,40.27-.1,80.54,.13,120.81,.02,4.98-1.21,6.66-6.18,6.07-5.4-.65-12.54,2.24-15.89-1.07-3.37-3.33-.94-10.45-.98-15.92-.13-19.58-.04-39.16-.06-58.76,0-2.07-.19-4.13-.29-6.2-.4-.08-.8-.17-1.17-.23h0Z"/>
    <path class="cls-3" d="M478.97,377.59c0-21.57,.19-43.14-.15-64.71-.08-5.13,1.47-6.14,6.26-6.05,16.08,.31,32.17,.13,48.23,.13,45.59,0,72.54,28.17,70.85,73.69-.88,23.43-8.13,43.56-28.75,56.84-11.58,7.43-24.63,10.53-38.24,10.76-17.61,.29-35.24-.08-52.86,.19-4.46,.06-5.47-1.28-5.42-5.51,.21-21.78,.08-43.58,.08-65.36v.02Zm25.82,.06c0,14.95,.13,29.9-.08,44.86-.04,3.66,.86,4.92,4.67,4.75,8.36-.36,16.73,.02,25.09-.36,24.38-1.13,39.01-13.67,42.64-36.82,1.53-9.8,1.38-19.66-.86-29.44-3.98-17.36-15.6-28.27-33.26-31.2-11.16-1.86-22.39-1.01-33.59-1.4-3.79-.13-4.75,1.05-4.69,4.73,.21,14.95,.08,29.9,.08,44.86v.02Z"/>
    <path class="cls-1" d="M1104.6,608.99c7.96,3.52,11.22,10.79,13.99,18.55,3.75,10.53,7.85,20.94,11.79,31.43,.13,.31,.04,.71,.1,1.82h-20.27c-2.28,0-2.35-1.8-2.91-3.29-4.29-11.31-8.84-22.51-12.82-33.93-2.7-7.75-7.83-11.39-15.77-11.54-6.35-.1-12.69,0-19.02-.25-2.97-.13-3.56,.94-3.54,3.69,.13,13.21-.13,26.45,.17,39.66,.08,4.27-.61,6.26-5.44,5.74-5.01-.52-11.89,1.65-14.7-.9-3.29-2.97-.96-9.91-.98-15.12-.08-31.71,0-63.39-.13-95.1,0-3.96,.59-5.59,5.17-5.51,15.94,.34,31.92,.17,47.85,.1,4.21,0,8.33,.54,12.38,1.51,14.74,3.5,23.2,12.69,24.67,26.6,1.76,16.56-4.17,27.66-18.39,34.64-.73,.36-1.86,.23-2.16,1.86v.02Zm-31.35-13.28v-.19c4.88,0,9.8,.38,14.64-.08,7.35-.69,13.82-3.2,16.4-11.08,4.06-12.36-2.68-22.6-16.06-23.48-9.74-.63-19.54-.19-29.3-.36-2.35-.04-3.12,.69-3.1,3.06,.1,9.57,.13,19.16,0,28.75-.04,2.53,.61,3.54,3.31,3.41,4.69-.21,9.4-.06,14.11-.06v.02Z"/>
    <path class="cls-1" d="M656.16,608.99c7.96,3.54,11.2,10.79,13.99,18.55,3.87,10.85,8.1,21.59,12.52,33.26h-20.88c-2.28,0-2.35-1.8-2.91-3.29-4.29-11.31-8.84-22.51-12.82-33.93-2.7-7.75-7.83-11.39-15.77-11.54-6.35-.1-12.69,0-19.02-.25-2.97-.13-3.56,.94-3.54,3.69,.13,13.21-.13,26.45,.17,39.66,.08,4.27-.61,6.26-5.44,5.74-5.01-.52-11.89,1.65-14.7-.9-3.27-2.97-.96-9.91-.98-15.12-.08-31.71,0-63.39-.13-95.1,0-3.96,.59-5.59,5.17-5.51,15.94,.34,31.89,.17,47.85,.1,4.21,0,8.33,.54,12.38,1.51,14.74,3.5,23.2,12.69,24.67,26.6,1.76,16.56-4.17,27.66-18.39,34.64-.73,.36-1.86,.23-2.16,1.86l-.02,.02Zm-48.73-31.1v14.64c0,1.68-.13,3.22,2.39,3.18,10.49-.19,21,.17,31.45-.59,6.72-.48,12.42-3.75,14.66-10.97,3.87-12.42-2.89-22.47-16.33-23.31-9.55-.59-19.18-.1-28.75-.36-3.12-.08-3.54,1.26-3.43,3.83,.17,4.52,.04,9.05,.04,13.55l-.02,.02Z"/>
    <path class="cls-1" d="M697.12,600.28c.36-14.85,3.71-30.47,16.23-42.34,17.53-16.63,38.57-18.03,60.31-11.25,20.31,6.35,29.95,22.26,33.32,42.36,2.01,11.92,1.57,23.83-1.99,35.45-6.24,20.31-19.45,33.11-40.77,36.44-19.98,3.14-38.41-.02-52.73-15.73-11.12-12.19-14.32-27.22-14.39-44.94h.02Zm21.72,2.79c-.17,4.9,.27,9.76,1.24,14.58,3.39,16.84,15.08,27.39,30.74,27.73,17.88,.4,29.59-8.36,33.88-25.78,2.87-11.62,2.81-23.35-.48-34.91-4.29-15.16-15.64-23.66-31.12-23.73-16.27-.06-27.16,7.9-31.94,23.35-1.88,6.11-2.53,12.4-2.32,18.76h0Z"/>
    <path class="cls-3" d="M983.56,305.63c40.44,0,66.01,25.86,67.12,67.85,.29,11.29-.63,22.47-4.36,33.15-8.21,23.58-24.33,38.3-49.38,41.99-23.5,3.46-45.19-.17-62.59-18.16-7.85-8.1-12.75-17.88-15.48-28.67-4.06-16.04-4.15-32.25-.1-48.31,7.73-30.72,31.08-47.87,64.79-47.87v.02Zm-41.28,72.04c-.23,6.18,.29,12.29,1.53,18.37,4.17,20.42,18.41,33.19,37.46,33.55,21.74,.42,35.92-10.26,41.09-31.45,3.43-14.11,3.35-28.4-.67-42.41-5.19-18.11-18.95-28.54-37.26-28.69-19.92-.17-33.34,9.34-39.2,27.87-2.35,7.41-3.22,15.04-2.95,22.78v-.02Z"/>
    <path class="cls-3" d="M1230.48,448.35c14.14-31.35,27.89-61.9,41.67-92.44,6.58-14.6,13.26-29.15,19.71-43.81,1.57-3.56,3.46-4.82,7.6-5.38,12.23-1.68,18.11,2.85,23.08,14.53,17.51,41.17,36.56,81.67,55.03,122.43,.52,1.17,1.03,2.37,2.01,4.65h-23.96c-2.76,0-2.87-2.26-3.6-4-3.5-8.27-7.16-16.5-10.39-24.88-1.32-3.43-3.14-4.48-6.79-4.46-19.83,.19-39.66,.17-59.5,0-3.33-.02-5.07,.88-6.32,4.1-3.35,8.57-7.2,16.94-10.64,25.49-1.15,2.85-2.68,3.92-5.8,3.79-7.04-.25-14.09-.08-22.14-.08l.02,.06Zm74.8-111.95c-8.8,20.21-17.15,39.43-25.49,58.62h50.99c-8.54-19.64-16.8-38.64-25.49-58.62h-.02Z"/>
    <path class="cls-1" d="M938.26,602.56c0-17.74,.15-35.5-.1-53.23-.06-4.17,1.13-5.03,5.13-5.01,22.83,.21,45.67,.19,68.52,0,3.6-.02,4.44,.98,4.42,4.48-.1,11.94,.04,11.94-12.08,11.94-13.59,0-27.18,.13-40.77-.08-3.58-.06-4.57,.94-4.44,4.48,.27,8.15,.25,16.29,0,24.44-.08,3.18,.98,3.87,3.96,3.83,15.22-.15,30.45,.06,45.67-.17,3.66-.06,4.42,1.07,4.38,4.5-.08,11.92,.04,11.92-12.1,11.92s-25.03,.15-37.53-.08c-3.64-.06-4.5,1.05-4.4,4.52,.25,8.69,.29,17.38,0,26.07-.13,3.73,1.17,4.4,4.57,4.36,15.96-.17,31.89,.1,47.85-.19,4.25-.08,4.98,1.21,4.92,5.11-.23,11.33-.06,11.35-11.6,11.35-20.48,0-40.96-.15-61.44,.13-4.23,.06-5.07-1.15-5.01-5.11,.21-17.74,.08-35.5,.08-53.23l-.02-.02Z"/>
    <path class="cls-1" d="M1294.19,602.61c0-17.93,.1-35.85-.08-53.78-.04-3.56,.94-4.5,4.52-4.48,23.01,.17,46.03,.17,69.07,0,3.52-.02,4.5,.86,4.46,4.42-.1,11.98,.04,11.98-12.04,11.98-13.78,0-27.56,.08-41.32-.06-3.04-.04-4.02,.71-3.94,3.87,.23,8.31,.23,16.67,0,24.98-.08,3.14,.88,3.92,3.92,3.87,15.22-.15,30.45,.06,45.67-.17,3.58-.04,4.46,.96,4.44,4.46-.1,11.96,.04,11.96-12.06,11.96s-25.38,.1-38.07-.06c-3.08-.04-3.98,.82-3.9,3.92,.21,9.05,.23,18.11,0,27.16-.08,3.18,.96,3.87,3.96,3.85,16.31-.15,32.63,.06,48.94-.17,3.64-.04,4.42,1.05,4.4,4.5-.1,11.94,.04,11.94-12.08,11.94-20.48,0-40.96-.1-61.44,.08-3.62,.04-4.52-.98-4.48-4.5,.17-17.93,.08-35.85,.08-53.78h-.04Z"/>
    <path class="cls-1" d="M1427.88,661.93c-14.55,0-28.33-2.83-40.9-10.62-2.97-1.84-4.06-3.5-1.99-6.83,2.07-3.35,2.72-8.61,5.57-10.16,2.72-1.49,6.2,3.1,9.53,4.69,12.13,5.78,24.77,7.73,38.03,5.49,3.98-.67,7.69-2.12,10.79-4.75,7.06-5.97,6.18-15.81-1.84-20.38-6.05-3.43-12.82-4.88-19.5-6.39-8.48-1.91-16.75-4.36-24.75-7.83-24.02-10.41-19.92-39.52-6.74-50.57,12.96-10.89,28.12-12.52,44.02-10.81,10.55,1.13,20.38,4.67,29,11.16,2.43,1.82,3.1,3.48,1.57,6.28-1.97,3.64-2.58,9.24-5.51,10.83-3.35,1.82-6.66-3.43-10.26-5.17-11.83-5.7-23.94-8.02-36.77-4-2.99,.94-5.59,2.55-7.75,4.82-6.55,6.93-4.86,17.05,3.64,21.3,6.87,3.43,14.43,4.65,21.76,6.53,8.23,2.12,16.31,4.57,23.98,8.4,21.17,10.58,17.19,37.3,4.33,47.45-8.9,7.04-20.02,10.51-36.25,10.55h.04Z"/>
    <path class="cls-1" d="M478.95,602.44c0-17.74,.1-35.5-.08-53.23-.04-3.66,.71-4.94,4.67-4.88,16.67,.23,33.34,0,50.01,.13,16.61,.15,29.8,8.82,34.07,22.07,7.58,23.52-7.89,44.65-33.36,45.3-9.78,.25-19.58,.23-29.36-.04-3.71-.1-4.88,.71-4.82,4.65,.27,13.4,0,26.81,.17,40.19,.04,3.16-.48,4.59-4.06,4.27-3.96-.36-8-.36-11.94,0-4.13,.36-5.51-.8-5.44-5.21,.27-17.74,.13-35.5,.13-53.23h.02Zm21.26-24.84c0,5.07,.06,10.14-.02,15.2-.02,1.88,.23,2.99,2.58,2.95,9.95-.17,19.94,.23,29.86-.4,7.2-.46,13.21-3.71,15.56-11.37,3.73-12.08-3.16-22.37-16.1-23.14-9.57-.57-19.18-.1-28.77-.34-2.87-.06-3.2,1.17-3.14,3.52,.15,4.52,.04,9.05,.04,13.57Z"/>
    <path class="cls-3" d="M685.25,377.46c0-21.55,.13-43.12-.1-64.67-.04-4.4,.8-6.03,5.65-5.95,20.25,.29,40.5,0,60.75,.17,20.54,.19,36.48,10.85,41.57,27.41,8.73,28.46-9.95,53.61-40.65,54.43-11.87,.31-23.79,.27-35.66-.06-4.46-.13-5.97,.8-5.86,5.61,.34,16.04-.04,32.12,.23,48.17,.06,4.4-.69,6.39-5.59,5.88-4.57-.46-9.3-.54-13.84,0-5.91,.73-6.68-1.82-6.62-6.99,.29-21.34,.13-42.68,.13-64.02v.02Zm25.82-29.42c0,5.93,.08,11.87-.04,17.8-.04,2.43,.54,3.52,3.25,3.48,11.66-.19,23.33,.25,34.97-.34,13.4-.67,21.4-9.05,21.3-21.17-.1-12.25-8.08-20.36-21.51-20.96-11.41-.5-22.87-.13-34.3-.31-2.89-.04-3.81,.82-3.71,3.71,.19,5.93,.06,11.87,.06,17.8h-.02Z"/>
    <path class="cls-1" d="M829.43,602.25c0-17.57,.1-35.12-.08-52.69-.04-3.73,.44-5.34,4.86-5.26,16.67,.31,33.34-.02,50.01,.17,18.91,.21,33.19,11.56,35.1,27.52,2.76,23.16-11.27,39.33-34.76,39.85-9.59,.21-19.22,.31-28.82-.08-4.52-.19-5.21,1.42-5.15,5.42,.23,13.03-.08,26.07,.19,39.1,.08,3.96-1.13,4.92-4.84,4.61-4.15-.34-8.36-.34-12.5,0-3.56,.29-4.15-1.15-4.1-4.31,.15-18.11,.06-36.21,.06-54.32h.04Zm21.26-24.38c0,4.88,.06,9.78-.04,14.66-.04,2.12,.23,3.29,2.85,3.25,9.59-.19,19.2,.17,28.77-.31,7.46-.38,13.74-3.39,16.31-11.18,3.96-11.96-2.93-22.53-15.77-23.37-9.74-.63-19.54-.15-29.32-.36-2.62-.06-2.91,1.11-2.87,3.22,.1,4.69,.04,9.4,.04,14.11l.02-.02Z"/>
    <path class="cls-3" d="M1409.85,387.56c0-18.05-.15-36.1,.1-54.13,.06-4.36-1.17-5.49-5.44-5.38-11.89,.29-23.79,0-35.68,.17-3.5,.06-4.86-.61-4.92-4.57-.23-16.67-.4-16.67,16.52-16.67,31.94,0,63.87,.13,95.81-.13,5.03-.04,6.16,1.26,6.07,6.14-.29,15.16-.06,15.16-15.39,15.16-8.59,0-17.19,.27-25.76-.1-4.54-.21-5.34,1.44-5.34,5.57,.15,35.87-.02,71.75,.21,107.62,.04,5.38-.65,8.17-6.91,7.22-6.22-.92-14.66,2.7-18.22-1.42-3.1-3.58-.98-11.73-1.03-17.86-.06-13.86,0-27.73,0-41.59l-.02-.02Z"/>
    <path class="cls-1" d="M1173.38,610.9c0-14.68-.13-29.36,.08-44.02,.06-3.83-.54-5.34-4.9-5.15-9.78,.4-19.58,0-29.36,.19-2.89,.06-3.56-.82-3.62-3.62-.31-13.86-.4-13.86,13.44-13.86,26.28,0,52.58,.08,78.87-.08,3.85-.02,5.24,.63,5.15,4.9-.27,12.61-.04,12.61-12.57,12.61-6.89,0-13.8,.25-20.67-.1-4.04-.21-5.13,.86-5.11,5.01,.21,29.53,0,59.06,.23,88.58,.04,4.5-1.01,6.07-5.57,5.55-3.77-.42-7.64-.38-11.41,0-4.02,.4-4.71-1.26-4.67-4.88,.19-15.04,.08-30.07,.08-45.11h.02Z"/>
    <path class="cls-3" d="M817.47,376.98c0-21.57,.13-43.14-.1-64.69-.04-4.38,1.19-5.7,5.51-5.4,6.55,.44,15.18-2.16,19.14,1.11,4.13,3.41,1.19,12.36,1.21,18.87,.13,31.48,.19,62.93-.06,94.41-.04,4.98,1.24,6.14,6.11,6.05,18.28-.31,36.56,0,54.85-.23,4.33-.06,5.42,1.13,5.4,5.4-.1,15.85,.08,15.85-15.98,15.85-23.56,0-47.14-.13-70.7,.1-4.36,.04-5.51-1.15-5.47-5.47,.21-22.01,.1-44.02,.1-66.01h-.02Z"/>
    <path class="cls-3" d="M629.71,376.96c0-21.57,.13-43.12-.1-64.69-.04-4.38,1.19-5.7,5.53-5.4,6.55,.44,15.18-2.16,19.14,1.11,4.13,3.41,1.19,12.36,1.21,18.87,.13,38.51-.04,77.02,.19,115.51,.02,4.88-1.05,6.51-6.07,6.07-6.35-.54-14.93,2.16-18.53-1.05-4.13-3.69-1.21-12.42-1.28-18.95-.17-17.15-.06-34.32-.06-51.5l-.02,.02Z"/>
    <path class="cls-1" d="M1268.64,602.61c0,17.93-.08,35.87,.08,53.8,.04,3.46-.71,4.86-4.4,4.46-5.51-.59-12.92,2.32-16.04-1.19-2.74-3.1-.88-10.32-.88-15.75-.04-31.52,.06-63.03-.13-94.55-.02-4.06,.94-5.4,5.07-5.05,5.19,.44,12.25-1.76,15.2,.88,3.39,3.04,.96,10.2,1.03,15.54,.15,13.95,.04,27.89,.04,41.84l.02,.02Z"/>
  </g>
  <g>
    <path class="cls-3" d="M209.13,343.34V6.27C209.13,2.1,211.2,0,215.35,0s7.89-.03,11.84,.02c2.82,.04,3.63,.86,3.76,3.72,.06,1.2,.03,2.4,.03,3.6V679.94c0,6.7,.36,6.64-6.22,6.9-4.21,.17-8.38,.16-12.58-.13-2.16-.15-3.11-1.1-3.04-3.22,.04-1.29,0-2.57,0-3.86V343.33h-.01Z"/>
    <path class="cls-3" d="M248.93,429.41V180.91c0-4.24,2.11-6.36,6.33-6.36s8.24,.07,12.35-.01c2.43-.05,3.48,1.02,3.37,3.4-.05,1.03,0,2.06,0,3.09v493.91c0,5.79,.03,5.91-5.5,7.25-4.24,1.03-8.56,1.8-12.87,2.5-2.78,.45-3.55-.33-3.67-3.17-.05-1.29-.03-2.57-.03-3.86v-248.24h.02Z"/>
    <path class="cls-2" d="M318.88,653.15c-1.95-6.72,1.99-9.6,7.19-12.72,17.91-10.76,33.49-24.37,47.16-40.2,10.8-12.52,19.93-26.15,27.39-40.89,5.69-11.23,10.25-22.92,13.77-35.03,3.07-10.55,5.26-21.28,6.58-32.15,1.65-13.65,1.81-27.37,.71-41.09-.67-8.38-1.82-16.7-3.55-24.91-2.42-11.47-5.8-22.68-10.18-33.57-7.31-18.15-16.92-34.98-29.06-50.33-9.28-11.74-19.7-22.35-31.34-31.8-14.11-11.47-29.43-20.92-46.03-28.3-6.48-2.89-13.07-5.51-19.89-7.53-1.81-.54-2.95-1.62-2.92-3.7,.05-3.6-.05-7.21,.04-10.81,.07-2.68,1.05-3.29,3.59-2.54,30.36,8.96,57.39,24.04,81.22,44.78,20.44,17.79,37.01,38.73,49.75,62.69,8.1,15.25,14.37,31.22,18.61,47.95,3.43,13.54,5.49,27.3,6.45,41.29,.75,10.93,.41,21.78-.37,32.62-.59,8.18-1.94,16.29-3.54,24.37-2.74,13.81-6.79,27.2-12.13,40.2-7.89,19.21-18.39,36.91-31.33,53.17-9.11,11.45-19.23,21.91-30.44,31.29-11.79,9.87-24.4,18.56-38.06,25.67-2.61,1.36-3.54,.74-3.58-2.26-.03-2.06,0-4.12,0-6.18l-.04-.02Z"/>
    <path class="cls-2" d="M201.03,257.59c0,1.72-.06,3.44,.01,5.15,.08,2.04-.88,2.98-2.85,3.18-29.85,3.01-57.61,12.4-83.29,27.82-18.58,11.15-34.93,25.03-49.12,41.46-14.58,16.89-26.08,35.65-34.47,56.31-5.16,12.71-8.89,25.84-11.46,39.35-2.31,12.09-3.34,24.29-3.5,36.54-.1,8.02,.56,16.08,1.51,24.1,1.13,9.55,2.83,18.97,5.26,28.24,2.98,11.36,6.97,22.38,11.89,33.05,10.2,22.1,23.97,41.74,41.16,58.92,12.42,12.41,26.26,23.09,41.54,31.79,2.36,1.34,3.23,2.97,3.11,5.58-.16,3.43,0,6.87-.06,10.3-.06,3.37-1.14,3.98-4.14,2.37-13.73-7.32-26.58-15.96-38.46-26.03-26.46-22.44-46.65-49.52-60.4-81.43-5.98-13.89-10.43-28.23-13.45-43.01-3.86-18.92-5.03-38.08-3.89-57.32,.85-14.29,3.09-28.44,6.82-42.28,6.42-23.84,16.44-46.04,30.28-66.54,11.45-16.96,24.94-32.08,40.58-45.22,18.24-15.32,38.4-27.48,60.61-36.22,12.94-5.09,26.23-8.91,39.85-11.57,6.39-1.24,12.84-2.09,19.33-2.66,2.01-.18,3.13,.57,3.1,2.7-.02,1.8,0,3.6,0,5.41h.04Z"/>
    <path class="cls-3" d="M190.81,501.78v177.94c0,5.37-.42,5.79-5.79,4.86-4.39-.77-8.72-1.82-13.1-2.62-2.12-.39-2.86-1.62-2.82-3.6,.02-.94-.02-1.89-.02-2.83V324.79c0-4.03,2.05-6.04,6.15-6.04,3.86,0,7.72-.03,11.58,.02,3.55,.04,3.99,.48,3.99,4.05,.01,21.55,0,43.09,.01,64.64v114.32Z"/>
    <path class="cls-3" d="M310.78,567.92c0,31.57-.04,63.15,.07,94.72,.01,3.28-.87,5.16-4.06,6.39-4.72,1.82-9.37,3.8-14.17,5.41-2.45,.82-3.11,.37-3.27-2.2-.08-1.28-.05-2.57-.05-3.86v-194.85c0-3.7,1.85-5.55,5.56-5.55,4.03,0,8.06-.02,12.09,.01,3.47,.03,3.81,.39,3.82,4.17v95.75h0Z"/>
    <path class="cls-3" d="M151.41,631.35v38.87c0,1.11,.02,2.24-.12,3.34-.23,1.74-.98,2.61-2.98,1.92-5.6-1.93-11.03-4.26-16.53-6.44-2.06-.81-2.82-2.24-2.82-4.38,.03-24.97,0-49.94,.04-74.91,0-2.98,.65-3.57,3.71-3.61,4.72-.05,9.43-.04,14.15-.01,3.77,.02,4.53,.74,4.54,4.54,.03,13.56,.01,27.11,.01,40.67h0Z"/>
  </g>
</svg>